<?xml version="1.0" standalone="no"?><!DOCTYPE svg PUBLIC "-//W3C//DTD SVG 1.1//EN" "http://www.w3.org/Graphics/SVG/1.1/DTD/svg11.dtd"><svg t="1630565447537" class="icon" viewBox="0 0 1024 1024" version="1.1" xmlns="http://www.w3.org/2000/svg" p-id="3176" xmlns:xlink="http://www.w3.org/1999/xlink" width="200" height="200"><defs><style type="text/css"></style></defs><path d="M739 601.6l180.2-180.2M735.391 598.1l180.24-180.24 7.07 7.07-180.239 180.24zM631.4 925.7c-5.1 0-10.1-1.3-14.5-3.7L277.1 733.8H116.8c-16 0-28.9-13-28.9-28.9v-384c0-16 13-28.9 28.9-28.9h160.3l339.7-189.9c4.5-2.5 9.5-3.8 14.6-3.8 5.3 0 10.6 1.4 15.1 4.1 9.1 5.3 14.8 15.2 14.8 25.8v767.6c0 10.5-5.6 20.4-14.7 25.8-4.6 2.7-9.9 4.1-15.2 4.1zM305.8 344.5v336.7L601.4 845V179.2L305.8 344.5zM145.7 675.9h102.2v-326H145.7v326z" p-id="3177"></path><path d="M913.2 637.1c-9.3 0-18.1-3.6-24.7-10.3l-63.4-63.4-63.4 63.4c-6.6 6.6-15.4 10.3-24.7 10.3s-18.1-3.6-24.7-10.3c-13.6-13.6-13.6-35.9 0-49.5l63.4-63.4-67.4-67.4c-6.6-6.6-10.3-15.4-10.3-24.7 0-9.3 3.6-18.1 10.3-24.7 6.6-6.6 15.4-10.3 24.7-10.3s18.1 3.6 24.7 10.3l67.4 67.4 67.4-67.4c6.6-6.6 15.4-10.3 24.7-10.3s18.1 3.6 24.7 10.3c6.6 6.6 10.3 15.4 10.3 24.7 0 9.3-3.6 18.1-10.3 24.7L874.6 514l63.4 63.4c13.6 13.6 13.6 35.9 0 49.5-6.7 6.6-15.5 10.2-24.8 10.2z" p-id="3178"></path></svg>